<?xml version="1.0" encoding="UTF-8"?>
<svg version="1.1" xmlns="http://www.w3.org/2000/svg" width="32" height="32">
<path d="M0 0 C0 0.99 0 1.98 0 3 C0.7425 2.979375 1.485 2.95875 2.25 2.9375 C5.56986996 4.22017703 5.82930654 4.99381381 7.3125 8.125 C9.55701052 13.92408229 9.90238871 18.43185009 7.375 24.1875 C5.17149594 28.10061929 3.22760259 30.18817032 -1 32 C-6.36719786 32.64140963 -11.27541069 32.46194356 -16.5 31.0625 C-21.15945249 27.2184517 -22.74017727 22.18993447 -23.4375 16.3125 C-22.67389837 10.53094481 -20.46251236 6.64455447 -15.80859375 3.03515625 C-11.10618766 0.34371432 -5.34730571 -0.34498746 0 0 Z " fill="#DFF0FD" transform="translate(23,0)"/>
<path d="M0 0 C-0.99 0.66 -1.98 1.32 -3 2 C-4.20450304 4.55183404 -4.20450304 4.55183404 -5 7 C-5.99 6.67 -6.98 6.34 -8 6 C-8 6.99 -8 7.98 -8 9 C-9.32 9 -10.64 9 -12 9 C-12 9.66 -12 10.32 -12 11 C-9.525 11.99 -9.525 11.99 -7 13 C-7.639375 13.309375 -8.27875 13.61875 -8.9375 13.9375 C-10.93610821 14.8345163 -10.93610821 14.8345163 -12 16 C-11.34 16.66 -10.68 17.32 -10 18 C-10.66 18.33 -11.32 18.66 -12 19 C-12.33 19.99 -12.66 20.98 -13 22 C-11.35 22 -9.7 22 -8 22 C-7.67 22.99 -7.34 23.98 -7 25 C-6.34 24.67 -5.68 24.34 -5 24 C-4.34 24.99 -3.68 25.98 -3 27 C-0.97954558 26.39816251 1.02111039 25.72693904 3 25 C3.33 24.34 3.66 23.68 4 23 C6.0625 22.375 6.0625 22.375 8 22 C8.99 18.535 8.99 18.535 10 15 C9.34 15 8.68 15 8 15 C7.63076923 8.6 7.63076923 8.6 9.5 5.5625 C9.995 5.046875 10.49 4.53125 11 4 C13.45236931 9.82437712 15.41431863 14.7570441 13.30859375 21.07421875 C11.17889402 25.89500348 8.97742641 28.86681725 4 31 C-1.36719786 31.64140963 -6.27541069 31.46194356 -11.5 30.0625 C-16.15945249 26.2184517 -17.74017727 21.18993447 -18.4375 15.3125 C-17.73897462 10.02366496 -15.96669185 6.62561236 -11.9375 3.1875 C-7.59169036 -0.04874122 -5.40450236 -0.10008338 0 0 Z " fill="#6F94C2" transform="translate(18,1)"/>
<path d="M0 0 C3.36568647 5.0485297 4.62311866 8.87266648 4 15 C2.59106618 19.2748333 0.68288918 22.31711082 -2.5 25.5 C-8.3254812 27.9966348 -14.87833931 28.11275524 -20.87109375 25.9765625 C-21.57363281 25.65429688 -22.27617187 25.33203125 -23 25 C-21.68 24.67 -20.36 24.34 -19 24 C-19 23.34 -19 22.68 -19 22 C-17.68 21.34 -16.36 20.68 -15 20 C-14.34 20.99 -13.68 21.98 -13 23 C-10.97954558 22.39816251 -8.97888961 21.72693904 -7 21 C-6.67 20.34 -6.34 19.68 -6 19 C-3.9375 18.375 -3.9375 18.375 -2 18 C-1.34 15.69 -0.68 13.38 0 11 C-0.66 11 -1.32 11 -2 11 C-2.28571429 3.57142857 -2.28571429 3.57142857 0 0 Z " fill="#4A82C5" transform="translate(28,5)"/>
<path d="M0 0 C3.36568647 5.0485297 4.62311866 8.87266648 4 15 C1.2043956 22.3978022 1.2043956 22.3978022 -2 24 C-3.18771723 20.57056481 -2.80226223 18.62215325 -1.5625 15.25 C-1.27503906 14.45078125 -0.98757812 13.6515625 -0.69140625 12.828125 C-0.46324219 12.22484375 -0.23507813 11.6215625 0 11 C-0.66 11 -1.32 11 -2 11 C-2.28571429 3.57142857 -2.28571429 3.57142857 0 0 Z " fill="#4477B4" transform="translate(28,5)"/>
<path d="M0 0 C0.66 0 1.32 0 2 0 C2 0.99 2 1.98 2 3 C3.65 3.33 5.3 3.66 7 4 C6.85831863 5.43791516 6.71148957 6.8753237 6.5625 8.3125 C6.48128906 9.11300781 6.40007813 9.91351563 6.31640625 10.73828125 C6 13 6 13 5 16 C3.02 15.34 1.04 14.68 -1 14 C-0.34 11.69 0.32 9.38 1 7 C0.34 7 -0.32 7 -1 7 C-0.67 4.69 -0.34 2.38 0 0 Z " fill="#5886BA" transform="translate(21,0)"/>
<path d="M0 0 C1.32 0.33 2.64 0.66 4 1 C3.33333333 3.66666667 2.66666667 6.33333333 2 9 C1.34 9 0.68 9 0 9 C-0.33 10.65 -0.66 12.3 -1 14 C-1.66 14 -2.32 14 -3 14 C-5.21538462 7.6 -5.21538462 7.6 -4.125 4.5625 C-3.75375 4.046875 -3.3825 3.53125 -3 3 C-3.99 2.67 -4.98 2.34 -6 2 C-4.02 2 -2.04 2 0 2 C0 1.34 0 0.68 0 0 Z " fill="#9AC0E9" transform="translate(18,0)"/>
<path d="M0 0 C-0.99 0.66 -1.98 1.32 -3 2 C-4.20450304 4.55183404 -4.20450304 4.55183404 -5 7 C-5.99 6.67 -6.98 6.34 -8 6 C-8 6.99 -8 7.98 -8 9 C-9.32 9 -10.64 9 -12 9 C-12 9.66 -12 10.32 -12 11 C-9.525 11.99 -9.525 11.99 -7 13 C-8.98 13.99 -8.98 13.99 -11 15 C-13 12 -13 12 -13 9 C-13.66 8.67 -14.32 8.34 -15 8 C-13.33333333 6.33333333 -11.66666667 4.66666667 -10 3 C-9.319375 2.1028125 -9.319375 2.1028125 -8.625 1.1875 C-5.94814019 -0.76866678 -3.19170739 -0.18066268 0 0 Z " fill="#8AB6E6" transform="translate(18,1)"/>
<path d="M0 0 C1.9375 0.6875 1.9375 0.6875 4 2 C4.75 4.625 4.75 4.625 5 7 C5.66 7 6.32 7 7 7 C7.33 5.35 7.66 3.7 8 2 C8.66 2 9.32 2 10 2 C10 1.34 10 0.68 10 0 C10.66 0 11.32 0 12 0 C10.03030303 6.81818182 10.03030303 6.81818182 7 9 C6.01 9 5.02 9 4 9 C0 3.85714286 0 3.85714286 0 0 Z " fill="#E6F4FC" transform="translate(10,7)"/>
<path d="M0 0 C1 2 1 2 0.0625 5.125 C-0.288125 6.07375 -0.63875 7.0225 -1 8 C-2.65 8.33 -4.3 8.66 -6 9 C-7.125 4.25 -7.125 4.25 -6 2 C-4.02111039 1.27306096 -2.02045442 0.60183749 0 0 Z " fill="#89BAE8" transform="translate(27,16)"/>
<path d="M0 0 C2.64 0 5.28 0 8 0 C7.67 1.98 7.34 3.96 7 6 C5.35 6 3.7 6 2 6 C1.34 4.02 0.68 2.04 0 0 Z " fill="#7DABDC" transform="translate(2,23)"/>
<path d="M0 0 C0.99 0 1.98 0 3 0 C3 0.66 3 1.32 3 2 C3.99 2.33 4.98 2.66 6 3 C5.01 3.495 5.01 3.495 4 4 C3.34444881 6.52733235 3.34444881 6.52733235 3 9 C2.34 9 1.68 9 1 9 C-1.125 2.25 -1.125 2.25 0 0 Z " fill="#AFD5F4" transform="translate(14,5)"/>
<path d="M0 0 C1.32 0 2.64 0 4 0 C4.66 1.32 5.32 2.64 6 4 C5.01 4.99 4.02 5.98 3 7 C1.68 6.34 0.36 5.68 -1 5 C-0.67 3.35 -0.34 1.7 0 0 Z " fill="#8FC0EB" transform="translate(14,22)"/>
<path d="M0 0 C-0.66 1.65 -1.32 3.3 -2 5 C-4.97 4.505 -4.97 4.505 -8 4 C-7.625 2.0625 -7.625 2.0625 -7 0 C-4.3333581 -1.33332095 -2.83319697 -0.67102033 0 0 Z " fill="#A9D1F2" transform="translate(13,19)"/>
<path d="M0 0 C1.5625 1.8125 1.5625 1.8125 3 4 C2.67 4.99 2.34 5.98 2 7 C-1.73487777 6.5020163 -3.81237635 6.12508244 -7 4 C-5.68 4 -4.36 4 -3 4 C-3 3.34 -3 2.68 -3 2 C-2.01 1.34 -1.02 0.68 0 0 Z " fill="#4779B5" transform="translate(12,25)"/>
<path d="M0 0 C-0.99 0.66 -1.98 1.32 -3 2 C-4.20450304 4.55183404 -4.20450304 4.55183404 -5 7 C-7 5.6875 -7 5.6875 -9 4 C-9 3.01 -9 2.02 -9 1 C-6.04335481 -0.4783226 -3.25770263 -0.06032783 0 0 Z " fill="#698EBB" transform="translate(18,1)"/>
<path d="M0 0 C1.65 0 3.3 0 5 0 C4.67 1.98 4.34 3.96 4 6 C2.35 5.67 0.7 5.34 -1 5 C-0.67 3.35 -0.34 1.7 0 0 Z " fill="#96C5ED" transform="translate(22,10)"/>
<path d="M0 0 C2.3125 -0.25 2.3125 -0.25 5 0 C6.97610386 2.04424538 8 3.1176825 8 6 C5.03824877 5.38722388 3.61941217 4.74627478 1 3 C0.67 2.01 0.34 1.02 0 0 Z " fill="#B7DBF7" transform="translate(6,10)"/>
<path d="M0 0 C1.32 0 2.64 0 4 0 C3.67 1.65 3.34 3.3 3 5 C1.68 4.67 0.36 4.34 -1 4 C-0.67 2.68 -0.34 1.36 0 0 Z " fill="#B6D6F3" transform="translate(24,4)"/>
<path d="M0 0 C-0.66 0.66 -1.32 1.32 -2 2 C-4.72869407 1.96712417 -7.2966618 1.43602229 -10 1 C-6.1496895 -1.56687367 -4.41430237 -0.83288724 0 0 Z " fill="#5290D9" transform="translate(21,30)"/>
<path d="M0 0 C-3.22791555 2.1519437 -4.28400809 2.20086443 -8 2 C-8.33 1.34 -8.66 0.68 -9 0 C-5.93109813 -1.53445094 -3.29905734 -0.54984289 0 0 Z " fill="#EBF7FD" transform="translate(14,16)"/>
<path d="M0 0 C0 3 0 3 0 3 Z " fill="#000101" transform="translate(30,25)"/>
<path d="M0 0 C3 1 3 1 3 1 Z " fill="#020303" transform="translate(5,31)"/>
<path d="" fill="#010202" transform="translate(0,0)"/>
<path d="M0 0 C0.99 0.495 0.99 0.495 2 1 C1.01 1.495 1.01 1.495 0 2 C0 1.34 0 0.68 0 0 Z " fill="#000101" transform="translate(3,4)"/>
<path d="M0 0 C3 1 3 1 3 1 Z " fill="#020303" transform="translate(24,1)"/>
<path d="M0 0 C2 1 2 1 2 1 Z " fill="#000001" transform="translate(25,30)"/>
<path d="" fill="#020202" transform="translate(0,0)"/>
<path d="" fill="#000102" transform="translate(0,0)"/>
<path d="" fill="#000102" transform="translate(0,0)"/>
<path d="" fill="#010102" transform="translate(0,0)"/>
<path d="" fill="#010102" transform="translate(0,0)"/>
<path d="" fill="#010202" transform="translate(0,0)"/>
<path d="M0 0 C2 1 2 1 2 1 Z " fill="#010202" transform="translate(7,1)"/>
<path d="M0 0 C2 1 2 1 2 1 Z " fill="#020203" transform="translate(9,0)"/>
<path d="" fill="#010304" transform="translate(0,0)"/>
<path d="" fill="#020303" transform="translate(0,0)"/>
<path d="" fill="#010203" transform="translate(0,0)"/>
<path d="" fill="#010101" transform="translate(0,0)"/>
<path d="" fill="#010203" transform="translate(0,0)"/>
<path d="" fill="#020304" transform="translate(0,0)"/>
<path d="" fill="#020303" transform="translate(0,0)"/>
<path d="" fill="#000101" transform="translate(0,0)"/>
<path d="" fill="#000000" transform="translate(0,0)"/>
<path d="" fill="#010202" transform="translate(0,0)"/>
<path d="" fill="#030404" transform="translate(0,0)"/>
<path d="" fill="#020304" transform="translate(0,0)"/>
</svg>
